# xmcd
#
# Track frame offsets:
#	150
#	21825
#	42159
#	66759
#	91112
#	112695
#	139515
#	160738
#	183036
#	207870
#
# Disc length: 3075 seconds
#
# Revision: 0
# Processed by: cddbd v1.5.2PL0 Copyright (c) Steve Scherf et al.
# Submitted via: EZCDAudioConverter 8.0.2.1
#
DISCID=700c010a
DTITLE=Phi Nhung, Hoài Nam, Yến Vi - Vol 02. Biển Tuyết
DYEAR=1999
DGENRE=Miscellaneous
TTITLE0=Phi Nhung - Biển Tuyết
TTITLE1=Hoài Nam - Thương về miền Trung
TTITLE2=Yến Vi - Chuyện hợp tan
TTITLE3=Hoài Nam - Điệu lý buồn
TTITLE4=Hoài Nam, Yến Vi - Tình cờ gặp nhau
TTITLE5=Yến Vi - Giọt lệ trong đêm
TTITLE6=Yến Vi - Nhật ký đời tôi
TTITLE7=Hoài Nam - Đất khách quê người
TTITLE8=Yến Vi - Chuyện hẹn hò
TTITLE9=Yến Vi - Lỡ lầm
EXTD=
EXTT0=
EXTT1=
EXTT2=
EXTT3=
EXTT4=
EXTT5=
EXTT6=
EXTT7=
EXTT8=
EXTT9=
PLAYORDER=
